<svg width="1240" height="1400" viewBox="0 0 1240 1400" xmlns="http://www.w3.org/2000/svg" font-family="system-ui, -apple-system, sans-serif">
  <title>Protótipos das telas do Cadei-Rotas</title>
  <desc>Mockup completo do app</desc>

  <defs>
    <linearGradient id="splashBg" x1="0%" y1="0%" x2="0%" y2="100%">
      <stop offset="0%" stop-color="#0E5FB5"/>
      <stop offset="100%" stop-color="#0C447C"/>
    </linearGradient>
    <linearGradient id="mapBg" x1="0%" y1="0%" x2="0%" y2="100%">
      <stop offset="0%" stop-color="#E8F0E8"/>
      <stop offset="100%" stop-color="#D9E5D9"/>
    </linearGradient>
    <filter id="shadow" x="-20%" y="-20%" width="140%" height="140%">
      <feGaussianBlur stdDeviation="6" in="SourceGraphic"/>
    </filter>
  </defs>

  <!-- Fundo geral -->
  <rect width="1240" height="1400" fill="#F5F4EE"/>

  <!-- Cabeçalho -->
  <text x="620" y="50" text-anchor="middle" font-size="26" font-weight="700" fill="#1A1A1A">Cadei-Rotas — Protótipo das Telas</text>

  <!-- ========== TELA 1: SPLASH ========== -->
  <g transform="translate(80, 110)">
    <text x="140" y="-12" text-anchor="middle" font-size="14" font-weight="600" fill="#1A1A1A">1. Splash</text>

    <!-- Mockup do celular -->
    <rect x="0" y="10" width="280" height="580" rx="32" fill="#1A1A1A"/>
    <rect x="10" y="20" width="260" height="560" rx="24" fill="url(#splashBg)"/>

    <!-- Notch -->
    <rect x="105" y="30" width="70" height="22" rx="11" fill="#1A1A1A"/>

    <!-- Logo central -->
    <g transform="translate(105, 230)">
      <path d="M 35 0 C 15 0, 0 15, 0 35 C 0 56, 17 78, 35 100 C 52 78, 70 56, 70 35 C 70 15, 55 0, 35 0 Z" fill="#FFFFFF"/>
      <circle cx="35" cy="35" r="22" fill="#0E5FB5"/>
      <circle cx="35" cy="35" r="22" fill="none" stroke="#FFFFFF" stroke-width="2.5"/>
      <line x1="35" y1="17" x2="35" y2="53" stroke="#FFFFFF" stroke-width="2" stroke-linecap="round"/>
      <line x1="17" y1="35" x2="53" y2="35" stroke="#FFFFFF" stroke-width="2" stroke-linecap="round"/>
      <line x1="22" y1="22" x2="48" y2="48" stroke="#FFFFFF" stroke-width="2" stroke-linecap="round"/>
      <line x1="48" y1="22" x2="22" y2="48" stroke="#FFFFFF" stroke-width="2" stroke-linecap="round"/>
      <circle cx="35" cy="35" r="4" fill="#FFFFFF"/>
    </g>

    <!-- Wordmark -->
    <text x="140" y="380" text-anchor="middle" font-size="28" font-weight="600" fill="#FFFFFF">Cadei-Rotas</text>
    <text x="140" y="405" text-anchor="middle" font-size="11" fill="#B5D4F4" letter-spacing="2">ACESSIBILIDADE EM ROTA</text>

    <!-- Loading -->
    <circle cx="125" cy="520" r="3" fill="#FFFFFF" opacity="0.4"/>
    <circle cx="140" cy="520" r="3" fill="#FFFFFF" opacity="0.7"/>
    <circle cx="155" cy="520" r="3" fill="#FFFFFF"/>
    <text x="140" y="550" text-anchor="middle" font-size="11" fill="#B5D4F4">Carregando…</text>
  </g>

  <!-- ========== TELA 2: INSTRUÇÕES ========== -->
  <g transform="translate(480, 110)">
    <text x="140" y="-12" text-anchor="middle" font-size="14" font-weight="600" fill="#1A1A1A">2. Instruções (slide 2 de 4)</text>

    <rect x="0" y="10" width="280" height="580" rx="32" fill="#1A1A1A"/>
    <rect x="10" y="20" width="260" height="560" rx="24" fill="#FFFFFF"/>

    <rect x="105" y="30" width="70" height="22" rx="11" fill="#1A1A1A"/>

    <!-- Skip -->
    <text x="245" y="85" text-anchor="end" font-size="13" fill="#5F5E5A">Pular</text>

    <!-- Ilustração: mapa estilizado -->
    <g transform="translate(50, 110)">
      <rect width="180" height="160" rx="12" fill="#E6F1FB"/>
      <line x1="0" y1="60" x2="180" y2="60" stroke="#B5D4F4" stroke-width="2"/>
      <line x1="0" y1="100" x2="180" y2="100" stroke="#B5D4F4" stroke-width="2"/>
      <line x1="60" y1="0" x2="60" y2="160" stroke="#B5D4F4" stroke-width="2"/>
      <line x1="120" y1="0" x2="120" y2="160" stroke="#B5D4F4" stroke-width="2"/>

      <g transform="translate(35, 25)">
        <path d="M 12 0 C 5 0, 0 5, 0 12 C 0 19, 6 27, 12 38 C 18 27, 24 19, 24 12 C 24 5, 19 0, 12 0 Z" fill="#0E5FB5"/>
        <circle cx="12" cy="12" r="5" fill="#FFFFFF"/>
      </g>
      <g transform="translate(100, 65)">
        <path d="M 12 0 C 5 0, 0 5, 0 12 C 0 19, 6 27, 12 38 C 18 27, 24 19, 24 12 C 24 5, 19 0, 12 0 Z" fill="#D85A30"/>
        <circle cx="12" cy="12" r="5" fill="#FFFFFF"/>
      </g>
      <g transform="translate(145, 105)">
        <path d="M 12 0 C 5 0, 0 5, 0 12 C 0 19, 6 27, 12 38 C 18 27, 24 19, 24 12 C 24 5, 19 0, 12 0 Z" fill="#A32D2D"/>
        <circle cx="12" cy="12" r="5" fill="#FFFFFF"/>
      </g>
    </g>

    <text x="140" y="320" text-anchor="middle" font-size="20" font-weight="600" fill="#1A1A1A">Cores dos pins</text>
    <text x="140" y="345" text-anchor="middle" font-size="13" fill="#5F5E5A">Veja a acessibilidade em um piscar</text>

    <!-- Legenda -->
    <g transform="translate(40, 356)">
      <circle cx="12" cy="12" r="10" fill="#0E5FB5"/>
      <text x="32" y="16" font-size="13" font-weight="600" fill="#1A1A1A">Acessível</text>
      <text x="32" y="32" font-size="11" fill="#5F5E5A">Rampa, elevador, banheiro PCD</text>

      <circle cx="12" cy="62" r="10" fill="#D85A30"/>
      <text x="32" y="66" font-size="13" font-weight="600" fill="#1A1A1A">Parcialmente inacessível</text>
      <text x="32" y="82" font-size="11" fill="#5F5E5A">Obstáculo contornável</text>

      <circle cx="12" cy="112" r="10" fill="#A32D2D"/>
      <text x="32" y="116" font-size="13" font-weight="600" fill="#1A1A1A">Totalmente inacessível</text>
      <text x="32" y="132" font-size="11" fill="#5F5E5A">Passagem bloqueada</text>
    </g>

    <!-- Dots -->
    <g transform="translate(110, 500)">
      <circle cx="0" cy="0" r="4" fill="#D3D1C7"/>
      <circle cx="18" cy="0" r="5" fill="#0E5FB5"/>
      <circle cx="36" cy="0" r="4" fill="#D3D1C7"/>
      <circle cx="54" cy="0" r="4" fill="#D3D1C7"/>
    </g>

    <!-- Botão -->
    <rect x="40" y="530" width="200" height="44" rx="22" fill="#0E5FB5"/>
    <text x="140" y="558" text-anchor="middle" font-size="14" font-weight="600" fill="#FFFFFF">Próximo</text>
  </g>

  <!-- ========== TELA 3: MAPA PRINCIPAL ========== -->
  <g transform="translate(880, 110)">
    <text x="140" y="-12" text-anchor="middle" font-size="14" font-weight="600" fill="#1A1A1A">3. Mapa principal</text>

    <rect x="0" y="10" width="280" height="580" rx="32" fill="#1A1A1A"/>
    <rect x="10" y="20" width="260" height="560" rx="24" fill="url(#mapBg)"/>

    <rect x="105" y="30" width="70" height="22" rx="11" fill="#1A1A1A"/>

    <!-- Top bar com busca -->
    <g transform="translate(20, 65)">
      <rect width="240" height="44" rx="22" fill="#FFFFFF" stroke="#D3D1C7" stroke-width="0.5"/>
      <circle cx="22" cy="22" r="7" fill="none" stroke="#5F5E5A" stroke-width="2"/>
      <line x1="27" y1="27" x2="33" y2="33" stroke="#5F5E5A" stroke-width="2" stroke-linecap="round"/>
      <text x="45" y="27" font-size="13" fill="#5F5E5A">Buscar local na UnB</text>
    </g>

    <!-- Mapa -->
    <g transform="translate(10, 130)">
      <rect y="40" width="260" height="14" fill="#FFFFFF" opacity="0.7"/>
      <rect y="140" width="260" height="14" fill="#FFFFFF" opacity="0.7"/>
      <rect y="240" width="260" height="14" fill="#FFFFFF" opacity="0.7"/>
      <rect y="340" width="260" height="14" fill="#FFFFFF" opacity="0.7"/>
      <rect x="60" width="14" height="400" fill="#FFFFFF" opacity="0.7"/>
      <rect x="160" width="14" height="400" fill="#FFFFFF" opacity="0.7"/>

      <!-- Blocos -->
      <rect x="15" y="60" width="40" height="75" rx="3" fill="#C6D5C6"/>
      <rect x="80" y="60" width="75" height="75" rx="3" fill="#C6D5C6"/>
      <rect x="180" y="60" width="75" height="75" rx="3" fill="#C6D5C6"/>
      <rect x="15" y="160" width="40" height="75" rx="3" fill="#C6D5C6"/>
      <rect x="80" y="160" width="75" height="75" rx="3" fill="#C6D5C6"/>
      <rect x="180" y="160" width="75" height="75" rx="3" fill="#C6D5C6"/>
      <rect x="15" y="260" width="40" height="75" rx="3" fill="#C6D5C6"/>
      <rect x="80" y="260" width="75" height="75" rx="3" fill="#C6D5C6"/>
      <rect x="180" y="260" width="75" height="75" rx="3" fill="#C6D5C6"/>

      <!-- PINS -->
      <g transform="translate(95, 80)">
        <path d="M 14 0 C 6 0, 0 6, 0 14 C 0 22, 7 32, 14 42 C 21 32, 28 22, 28 14 C 28 6, 22 0, 14 0 Z" fill="#0E5FB5" stroke="#FFFFFF" stroke-width="2"/>
        <circle cx="14" cy="14" r="6" fill="#FFFFFF"/>
      </g>
      <g transform="translate(195, 170)">
        <path d="M 14 0 C 6 0, 0 6, 0 14 C 0 22, 7 32, 14 42 C 21 32, 28 22, 28 14 C 28 6, 22 0, 14 0 Z" fill="#D85A30" stroke="#FFFFFF" stroke-width="2"/>
        <circle cx="14" cy="14" r="6" fill="#FFFFFF"/>
      </g>
      <g transform="translate(105, 270)">
        <path d="M 14 0 C 6 0, 0 6, 0 14 C 0 22, 7 32, 14 42 C 21 32, 28 22, 28 14 C 28 6, 22 0, 14 0 Z" fill="#A32D2D" stroke="#FFFFFF" stroke-width="2"/>
        <circle cx="14" cy="14" r="6" fill="#FFFFFF"/>
      </g>
      <g transform="translate(210, 270)">
        <path d="M 14 0 C 6 0, 0 6, 0 14 C 0 22, 7 32, 14 42 C 21 32, 28 22, 28 14 C 28 6, 22 0, 14 0 Z" fill="#0E5FB5" stroke="#FFFFFF" stroke-width="2"/>
        <circle cx="14" cy="14" r="6" fill="#FFFFFF"/>
      </g>
      <g transform="translate(30, 195)">
        <path d="M 14 0 C 6 0, 0 6, 0 14 C 0 22, 7 32, 14 42 C 21 32, 28 22, 28 14 C 28 6, 22 0, 14 0 Z" fill="#D85A30" stroke="#FFFFFF" stroke-width="2"/>
        <circle cx="14" cy="14" r="6" fill="#FFFFFF"/>
      </g>

      <!-- Localização do usuário -->
      <circle cx="140" cy="200" r="16" fill="#378ADD" opacity="0.25"/>
      <circle cx="140" cy="200" r="7" fill="#378ADD" stroke="#FFFFFF" stroke-width="2.5"/>
    </g>

    <!-- FAB de reporte -->
    <g transform="translate(190, 450)">
      <circle cx="36" cy="36" r="32" fill="#D85A30"/>
      <line x1="36" y1="22" x2="36" y2="50" stroke="#FFFFFF" stroke-width="3.5" stroke-linecap="round"/>
      <line x1="22" y1="36" x2="50" y2="36" stroke="#FFFFFF" stroke-width="3.5" stroke-linecap="round"/>
    </g>
    <text x="226" y="530" text-anchor="middle" font-size="11" fill="#1A1A1A" font-weight="600">Reportar</text>

    <!-- Bottom nav -->
    <rect x="10" y="540" width="260" height="40" fill="#FFFFFF" rx="24"/>
    <rect x="10" y="540" width="260" height="16" fill="#FFFFFF" />
    <g transform="translate(70, 543)">
      <path d="M 0 4 L 8 0 L 16 4 L 24 0 L 24 20 L 16 24 L 8 20 L 0 24 Z" fill="#0E5FB5"/>
      <text x="12" y="20" font-size="10" text-anchor="middle" fill="#0E5FB5" font-weight="600" transform="translate(0, 14)">Mapa</text>
    </g>
    <g transform="translate(195, 543)">
      <circle cx="12" cy="8" r="6" fill="none" stroke="#5F5E5A" stroke-width="2"/>
      <path d="M 2 24 Q 2 14, 12 14 Q 22 14, 22 24" fill="none" stroke="#5F5E5A" stroke-width="2"/>
      <text x="12" y="34" font-size="10" text-anchor="middle" fill="#5F5E5A">Perfil</text>
    </g>
  </g>

  <!-- ========== TELA 4: FORMULÁRIO DE REPORT ========== -->
  <g transform="translate(80, 760)">
    <text x="140" y="-12" text-anchor="middle" font-size="14" font-weight="600" fill="#1A1A1A">4. Formulário de Report</text>

    <rect x="0" y="10" width="280" height="580" rx="32" fill="#1A1A1A"/>
    <rect x="10" y="20" width="260" height="560" rx="24" fill="#FFFFFF"/>

    <rect x="105" y="30" width="70" height="22" rx="11" fill="#1A1A1A"/>

    <!-- Header -->
    <g transform="translate(20, 70)">
      <text x="0" y="14" font-size="13" fill="#0E5FB5">← Voltar</text>
      <text x="120" y="14" text-anchor="middle" font-size="16" font-weight="700" fill="#1A1A1A">Novo Report</text>
    </g>

    <!-- Tipo de barreira -->
    <text x="30" y="115" font-size="12" font-weight="600" fill="#5F5E5A" letter-spacing="0.5">SEVERIDADE DA BARREIRA</text>

    <!-- Opção: Parcial (selecionada) -->
    <g transform="translate(30, 130)">
      <rect width="220" height="48" rx="10" fill="#FAECE7" stroke="#D85A30" stroke-width="2"/>
      <circle cx="24" cy="24" r="10" fill="#D85A30"/>
      <circle cx="24" cy="24" r="4" fill="#FFFFFF"/>
      <text x="46" y="22" font-size="13" font-weight="600" fill="#1A1A1A">Parcialmente inacessível</text>
      <text x="46" y="36" font-size="10" fill="#5F5E5A">Passa, mas com dificuldade</text>
    </g>

    <!-- Opção: Total -->
    <g transform="translate(30, 188)">
      <rect width="220" height="48" rx="10" fill="#FFFFFF" stroke="#D3D1C7" stroke-width="1"/>
      <circle cx="24" cy="24" r="10" fill="#A32D2D"/>
      <circle cx="24" cy="24" r="4" fill="#FFFFFF"/>
      <text x="46" y="22" font-size="13" font-weight="600" fill="#1A1A1A">Totalmente inacessível</text>
      <text x="46" y="36" font-size="10" fill="#5F5E5A">Passagem bloqueada</text>
    </g>

    <!-- Título -->
    <text x="30" y="265" font-size="12" font-weight="600" fill="#5F5E5A" letter-spacing="0.5">TÍTULO</text>
    <g transform="translate(30, 275)">
      <rect width="220" height="40" rx="8" fill="#F5F4EE" stroke="#D3D1C7" stroke-width="1"/>
      <text x="12" y="25" font-size="13" fill="#1A1A1A">Escada sem rampa</text>
    </g>

    <!-- Descrição -->
    <text x="30" y="340" font-size="12" font-weight="600" fill="#5F5E5A" letter-spacing="0.5">DESCRIÇÃO</text>
    <g transform="translate(30, 350)">
      <rect width="220" height="70" rx="8" fill="#F5F4EE" stroke="#D3D1C7" stroke-width="1"/>
      <text x="12" y="22" font-size="12" fill="#1A1A1A">Entrada lateral do bloco</text>
      <text x="12" y="40" font-size="12" fill="#1A1A1A">só tem 4 degraus, sem</text>
      <text x="12" y="58" font-size="12" fill="#1A1A1A">rampa alternativa.</text>
    </g>

    <!-- Foto -->
    <text x="30" y="445" font-size="12" font-weight="600" fill="#5F5E5A" letter-spacing="0.5">FOTO</text>
    <g transform="translate(30, 455)">
      <rect width="105" height="60" rx="8" fill="#E6F1FB" stroke="#0E5FB5" stroke-width="1" stroke-dasharray="4 3"/>
      <circle cx="52" cy="26" r="9" fill="none" stroke="#0E5FB5" stroke-width="2"/>
      <circle cx="52" cy="26" r="4" fill="#0E5FB5"/>
      <text x="52" y="50" text-anchor="middle" font-size="10" fill="#0E5FB5" font-weight="600">Câmera</text>

      <rect x="115" width="105" height="60" rx="8" fill="#FFFFFF" stroke="#D3D1C7" stroke-width="1"/>
      <rect x="135" y="14" width="65" height="32" rx="4" fill="#E6F1FB"/>
      <circle cx="148" cy="24" r="3" fill="#0E5FB5"/>
      <path d="M 140 40 L 152 28 L 162 38 L 172 32 L 198 44 L 138 44 Z" fill="#B5D4F4"/>
      <text x="167" y="56" text-anchor="middle" font-size="9" fill="#5F5E5A">Galeria</text>
    </g>

    <!-- Botões -->
    <g transform="translate(30, 530)">
      <rect width="100" height="44" rx="22" fill="#FFFFFF" stroke="#D3D1C7" stroke-width="1.5"/>
      <text x="50" y="28" text-anchor="middle" font-size="13" font-weight="600" fill="#5F5E5A">Cancelar</text>

      <rect x="110" width="110" height="44" rx="22" fill="#1D9E75"/>
      <text x="165" y="28" text-anchor="middle" font-size="13" font-weight="600" fill="#FFFFFF">Confirmar</text>
    </g>
  </g>

  <!-- ========== TELA 5: DETALHES DO PIN ========== -->
  <g transform="translate(480, 760)">
    <text x="140" y="-12" text-anchor="middle" font-size="14" font-weight="600" fill="#1A1A1A">5. Detalhes do Pin</text>

    <rect x="0" y="10" width="280" height="580" rx="32" fill="#1A1A1A"/>
    <rect x="10" y="20" width="260" height="560" rx="24" fill="#FFFFFF"/>

    <rect x="105" y="30" width="70" height="22" rx="11" fill="#1A1A1A"/>

    <!-- Mini mapa no topo (mostra contexto) -->
    <rect x="10" y="60" width="260" height="130" fill="url(#mapBg)"/>
    <rect x="10" y="100" width="260" height="10" fill="#FFFFFF" opacity="0.6"/>
    <rect x="120" y="60" width="10" height="130" fill="#FFFFFF" opacity="0.6"/>
    <rect x="40" y="115" width="60" height="55" rx="2" fill="#C6D5C6"/>
    <rect x="160" y="120" width="80" height="55" rx="2" fill="#C6D5C6"/>

    <!-- Pin selecionado destacado -->
    <g transform="translate(115, 105)">
      <circle cx="14" cy="40" r="20" fill="#D85A30" opacity="0.2"/>
      <path d="M 14 4 C 4 4, -4 12, -4 22 C -4 32, 6 46, 14 62 C 22 46, 32 32, 32 22 C 32 12, 24 4, 14 4 Z" fill="#D85A30" stroke="#FFFFFF" stroke-width="2.5"/>
      <circle cx="14" cy="22" r="7" fill="#FFFFFF"/>
    </g>

    <!-- Botão voltar -->
    <g transform="translate(20, 80)">
      <circle cx="16" cy="16" r="16" fill="#FFFFFF"/>
      <text x="16" y="22" text-anchor="middle" font-size="16" fill="#1A1A1A">←</text>
    </g>

    <!-- Card de informações -->
    <g transform="translate(10, 200)">
      <rect width="260" height="380" rx="20" fill="#FFFFFF"/>

      <!-- Badge da severidade -->
      <g transform="translate(20, 20)">
        <rect width="130" height="26" rx="13" fill="#FAECE7"/>
        <circle cx="14" cy="13" r="6" fill="#D85A30"/>
        <text x="26" y="17" font-size="11" font-weight="600" fill="#D85A30">Parcialmente</text>
      </g>

      <!-- Quantidade de reports -->
      <g transform="translate(165, 20)">
        <rect width="80" height="26" rx="13" fill="#E6F1FB"/>
        <text x="16" y="17" font-size="11" fill="#0E5FB5" font-weight="600">7 reports</text>
      </g>

      <!-- Título -->
      <text x="20" y="75" font-size="17" font-weight="700" fill="#1A1A1A">Escada sem rampa</text>
      <text x="20" y="93" font-size="11" fill="#5F5E5A">Bloco SG-11 · UnB Darcy Ribeiro</text>

      <!-- Foto placeholder -->
      <g transform="translate(20, 110)">
        <rect width="220" height="120" rx="10" fill="#E6F1FB"/>
        <!-- Simulação de foto: escada -->
        <rect y="80" width="220" height="40" fill="#D3D1C7"/>
        <rect y="65" width="220" height="15" fill="#B4B2A9"/>
        <rect y="50" width="220" height="15" fill="#C9C7BE"/>
        <rect y="35" width="220" height="15" fill="#B4B2A9"/>
        <line x1="40" y1="20" x2="40" y2="120" stroke="#5F5E5A" stroke-width="2"/>
        <line x1="180" y1="20" x2="180" y2="120" stroke="#5F5E5A" stroke-width="2"/>
        <!-- Selo IA verificado -->
        <g transform="translate(165, 8)">
          <rect width="48" height="20" rx="10" fill="#534AB7"/>
          <text x="24" y="14" text-anchor="middle" font-size="9" font-weight="600" fill="#FFFFFF">✓ IA</text>
        </g>
      </g>

      <!-- Descrição -->
      <text x="20" y="255" font-size="11" font-weight="600" fill="#5F5E5A" letter-spacing="0.5">DESCRIÇÃO</text>
      <text x="20" y="275" font-size="12" fill="#1A1A1A">Entrada lateral do bloco só tem</text>
      <text x="20" y="291" font-size="12" fill="#1A1A1A">4 degraus, sem rampa alternativa.</text>

      <!-- Ações -->
      <g transform="translate(20, 315)">
        <rect width="105" height="44" rx="22" fill="#E1F5EE"/>
        <text x="52" y="28" text-anchor="middle" font-size="12" font-weight="600" fill="#0F6E56">✓ Confirmar</text>

        <rect x="115" width="105" height="44" rx="22" fill="#F5F4EE" stroke="#D3D1C7" stroke-width="1"/>
        <text x="167" y="28" text-anchor="middle" font-size="12" font-weight="600" fill="#5F5E5A">Contestar</text>
      </g>
    </g>
  </g>

  <!-- ========== TELA 6: PERFIL ========== -->
  <g transform="translate(880, 760)">
    <text x="140" y="-12" text-anchor="middle" font-size="14" font-weight="600" fill="#1A1A1A">6. Perfil do Usuário</text>

    <rect x="0" y="10" width="280" height="580" rx="32" fill="#1A1A1A"/>
    <rect x="10" y="20" width="260" height="560" rx="24" fill="#F5F4EE"/>

    <rect x="105" y="30" width="70" height="22" rx="11" fill="#1A1A1A"/>

    <!-- Header com fundo azul -->
    <rect x="10" y="60" width="260" height="160" fill="#0E5FB5"/>
    <rect x="10" y="60" width="260" height="160" fill="url(#splashBg)"/>

    <!-- Avatar -->
    <circle cx="140" cy="130" r="38" fill="#FFFFFF"/>
    <circle cx="140" cy="120" r="14" fill="#0E5FB5"/>
    <path d="M 115 158 Q 115 138, 140 138 Q 165 138, 165 158 Z" fill="#0E5FB5"/>

    <!-- Nome e email -->
    <text x="140" y="188" text-anchor="middle" font-size="18" font-weight="700" fill="#FFFFFF">Maria Silva</text>
    <text x="140" y="208" text-anchor="middle" font-size="12" fill="#B5D4F4">[email protected]</text>

    <!-- Estatísticas -->
    <g transform="translate(30, 250)">
      <rect width="220" height="70" rx="14" fill="#FFFFFF"/>
      <line x1="73" y1="14" x2="73" y2="56" stroke="#D3D1C7" stroke-width="1"/>
      <line x1="147" y1="14" x2="147" y2="56" stroke="#D3D1C7" stroke-width="1"/>

      <text x="36" y="32" text-anchor="middle" font-size="20" font-weight="700" fill="#0E5FB5">12</text>
      <text x="36" y="50" text-anchor="middle" font-size="9" fill="#5F5E5A">REPORTS</text>

      <text x="110" y="32" text-anchor="middle" font-size="20" font-weight="700" fill="#1D9E75">38</text>
      <text x="110" y="50" text-anchor="middle" font-size="9" fill="#5F5E5A">CONFIRMAÇÕES</text>

      <text x="184" y="32" text-anchor="middle" font-size="20" font-weight="700" fill="#D85A30">5</text>
      <text x="184" y="50" text-anchor="middle" font-size="9" fill="#5F5E5A">CONTESTAÇÕES</text>
    </g>

    <!-- Configurações -->
    <text x="30" y="350" font-size="11" font-weight="600" fill="#5F5E5A" letter-spacing="0.5">CONFIGURAÇÕES</text>

    <!-- Tema -->
    <g transform="translate(30, 360)">
      <rect width="220" height="50" rx="10" fill="#FFFFFF"/>
      <circle cx="22" cy="25" r="10" fill="#E6F1FB"/>
      <path d="M 18 25 A 4 4 0 0 1 26 25 A 6 6 0 0 0 18 25 Z" fill="#0E5FB5"/>
      <text x="44" y="22" font-size="13" font-weight="600" fill="#1A1A1A">Tema</text>
      <text x="44" y="36" font-size="11" fill="#5F5E5A">Modo claro</text>
      <!-- Switch -->
      <rect x="170" y="17" width="36" height="18" rx="9" fill="#D3D1C7"/>
      <circle cx="179" cy="26" r="7" fill="#FFFFFF"/>
    </g>

    <!-- Notificações -->
    <g transform="translate(30, 420)">
      <rect width="220" height="50" rx="10" fill="#FFFFFF"/>
      <circle cx="22" cy="25" r="10" fill="#E1F5EE"/>
      <path d="M 18 21 L 22 17 L 26 21 L 26 28 L 18 28 Z" fill="#0F6E56"/>
      <text x="44" y="22" font-size="13" font-weight="600" fill="#1A1A1A">Notificações</text>
      <text x="44" y="36" font-size="11" fill="#5F5E5A">Reports próximos</text>
      <!-- Switch ativo -->
      <rect x="170" y="17" width="36" height="18" rx="9" fill="#1D9E75"/>
      <circle cx="197" cy="26" r="7" fill="#FFFFFF"/>
    </g>

    <!-- Sair -->
    <g transform="translate(30, 485)">
      <rect width="220" height="44" rx="22" fill="#FFFFFF" stroke="#A32D2D" stroke-width="1.5"/>
      <text x="110" y="28" text-anchor="middle" font-size="13" font-weight="600" fill="#A32D2D">Sair da conta</text>
    </g>

    <!-- Bottom nav -->
   <rect x="10" y="540" width="260" height="40" fill="#FFFFFF" rx="24"/>
    <rect x="10" y="540" width="260" height="16" fill="#FFFFFF" />
    <g transform="translate(70, 543)">
      <path d="M 0 4 L 8 0 L 16 4 L 24 0 L 24 20 L 16 24 L 8 20 L 0 24 Z" fill="#5F5E5A"/>
      <text x="12" y="20" font-size="10" text-anchor="middle" fill="#5F5E5A" font-weight="600" transform="translate(0, 14)">Mapa</text>
    </g>
    <g transform="translate(195, 543)">
      <circle cx="12" cy="8" r="6" fill="none" stroke="#0E5FB5" stroke-width="2"/>
      <path d="M 2 24 Q 2 14, 12 14 Q 22 14, 22 24" fill="none" stroke="#0E5FB5" stroke-width="2"/>
      <text x="12" y="34" font-size="10" text-anchor="middle" fill="#0E5FB5">Perfil</text>
    </g>
  </g>
</svg>

